<?xml version="1.0" encoding="UTF-8"?>
<svg id="Camada_2" data-name="Camada 2" xmlns="http://www.w3.org/2000/svg" viewBox="0 0 582.32 509.51">
  <defs>
    <style>
      .cls-1 {
        fill: #fff;
        stroke: #000;
        stroke-miterlimit: 10;
        stroke-width: 4.32px;
      }
    </style>
  </defs>
  <g id="Camada_1-2" data-name="Camada 1">
    <g>
      <g>
        <rect x="349.57" y="170.46" width="47.39" height="183.49" rx="20.98" ry="20.98" transform="translate(280.73 -184.47) rotate(43.21)"/>
        <g>
          <rect x="171.52" y="2.38" width="47.39" height="183.49" rx="20.98" ry="20.98" transform="translate(117.37 -108.13) rotate(43.21)"/>
          <rect x="130.36" y="-10.54" width="47.39" height="133.67" rx="20.9" ry="20.9" transform="translate(80.31 -90.21) rotate(43.21)"/>
          <rect x="389.07" y="234.97" width="47.39" height="133.67" rx="20.9" ry="20.9" transform="translate(318.55 -200.77) rotate(43.21)"/>
          <rect x="114.8" y="2.84" width="18.23" height="48.61" rx="1.4" ry="1.4" transform="translate(52.18 -77.48) rotate(43.21)"/>
          <rect x="436.31" y="304.85" width="18.23" height="48.61" rx="1.4" ry="1.4" transform="translate(346.13 -215.72) rotate(43.21)"/>
          <rect x="194.58" y="161.56" width="181.06" height="34.03" transform="translate(199.56 -146.79) rotate(43.21)"/>
        </g>
      </g>
      <g>
        <rect x="171.36" y="171.55" width="47.39" height="183.49" rx="20.98" ry="20.98" transform="translate(517.32 322.55) rotate(136.95)"/>
        <g>
          <rect x="350.71" y="4.84" width="47.39" height="183.49" rx="20.98" ry="20.98" transform="translate(713.94 -88.4) rotate(136.95)"/>
          <rect x="391.14" y="-8.85" width="47.39" height="133.67" rx="20.9" ry="20.9" transform="translate(757.57 -182.82) rotate(136.95)"/>
          <rect x="129.26" y="233.28" width="47.39" height="133.67" rx="20.9" ry="20.9" transform="translate(469.6 415.02) rotate(136.95)"/>
          <rect x="436.78" y="5.51" width="18.23" height="48.61" rx="1.4" ry="1.4" transform="translate(792.09 -252.78) rotate(136.95)"/>
          <rect x="114.42" y="306.62" width="18.23" height="48.61" rx="1.4" ry="1.4" transform="translate(439.71 488.43) rotate(136.95)"/>
          <rect x="193.74" y="163.77" width="181.06" height="34.03" transform="translate(615.41 118.85) rotate(136.95)"/>
        </g>
      </g>
    </g>
    <g>
      <path class="cls-1" d="M57.73,458.64c5.33,7.44,7.96,11.17,13.16,18.66,1.23,1.72,2.18,2.82,2.85,3.3.68.48,1.62.71,2.81.68,2.31-.06,3.68.95,4.09,3.05.48,2.47-.55,4.51-3.06,6.12-2.51,1.62-6.85,3.04-13.02,4.33-6.97,1.46-12.21,2.3-15.7,2.41-1.6.05-2.97-.29-4.09-1.01-1.12-.72-1.83-1.73-2.14-3.03-.23-1.01-.17-1.84.18-2.51.35-.66,1.13-1.38,2.33-2.15,1.34-.86,1.87-1.94,1.58-3.22-.51-2.25-2.08-3.31-4.69-3.12-2.8.2-6.69.9-11.62,2.08-4.15.99-6.56,1.88-7.24,2.61-.42.46-.7,1.17-.86,2.13-.16.96-.14,1.84.06,2.64.18.74.43,1.18.75,1.33.32.15,1.28.32,2.84.44,2.01.16,3.27,1.12,3.71,2.92.97,3.98-2.93,7.01-11.65,9.24-4.96,1.27-8.71,1.88-11.21,1.76-2.32-.11-3.81-1.36-4.45-3.72-.28-1.03-.26-1.89.07-2.59.32-.69,1.04-1.44,2.15-2.24,1.8-1.3,3.04-2.78,3.71-4.43.67-1.65,1.38-5,2.15-10.03,1.05-6.86,1.59-10.3,2.72-17.17,1.05-6.3,1.67-10.97,1.83-14,.15-3.03-.08-5.91-.71-8.63-.67-2.88-.99-4.92-.96-6.12.03-1.2.46-2.46,1.28-3.79,1.68-2.89,4.29-4.76,7.8-5.58,3.31-.78,7.01-.24,10.4,1.79,9.96,5.95,18.15,18.15,24.94,27.83ZM26.03,472.44c3.71-.89,5.57-1.33,9.29-2.19,1.71-.4,2.47-.99,2.28-1.8-.25-1.11-2.06-3.56-5.46-7.33-1.55-1.73-2.69-2.86-3.42-3.39-.73-.53-1.42-.73-2.06-.57-1.15.27-1.85,1.63-2.07,4.05-.06.33-.23,1.63-.53,3.9-.51,3.74-.68,5.94-.51,6.61.2.84,1.03,1.08,2.48.73Z"/>
      <path class="cls-1" d="M109.55,455.2c-1.19.16-1.92.71-2.13,1.55-.21.84-.08,2.68.39,5.54.71,4.32,1.51,7.64,2.41,9.97.27.65.59,1.14.96,1.46.37.32,1.04.69,2.01,1.09,2.06.82,3.23,2.15,3.53,3.99.35,2.25-.7,4.04-3.14,5.39-2.44,1.36-6.75,2.54-12.92,3.62-11.47,2-17.64.78-18.55-3.96-.16-.81-.11-1.5.14-2.05.25-.56.9-1.4,1.95-2.5,1.18-1.24,1.91-2.57,2.15-4,.24-1.43.13-3.81-.27-7.12-.29-2.42-1.8-11.07-4.54-25.9-.87-4.71-1.69-7.87-2.46-9.48-.77-1.61-1.99-2.68-3.63-3.16-1.55-.45-2.66-.91-3.27-1.41-.6-.5-1-1.22-1.18-2.17-.24-1.25.02-2.43.78-3.54.76-1.11,1.94-2.04,3.54-2.8,1.35-.64,3.26-1.18,5.74-1.63,1.09-.2,3.85-.52,8.27-.94.84-.08,2.15-.27,3.94-.57,2.98-.51,6.92-1.39,11.81-2.58,3.1-.75,5.3-1.2,6.56-1.39,7.1-1.09,13.24-.17,18.35,2.7,4.6,2.59,7.25,6.74,8,12.37.42,3.14.08,6.1-1.01,8.86-1.08,2.77-2.77,4.97-5.08,6.61-.96.69-1.38,1.41-1.27,2.16.14.99,1.04,1.68,2.7,2.07,3.55.83,6.29,2.46,8.2,4.88,1.91,2.42,3.55,6.32,4.92,11.65.57,2.21,1.17,3.63,1.79,4.22.62.6,1.95,1.08,3.98,1.45.62.13,1.18.5,1.67,1.12.49.62.79,1.33.89,2.16.13,1.06-.12,2.17-.73,3.34-.62,1.17-1.48,2.14-2.59,2.9-2.45,1.66-5.95,2.79-10.49,3.41-6.07.83-10.65-.29-13.8-3.41-1.42-1.39-2.73-3.21-3.92-5.47-1.19-2.26-2.74-5.82-4.66-10.68-1.23-3.12-2.51-5.26-3.85-6.41-1.34-1.15-3.13-1.65-5.2-1.37ZM102.51,429.65c.56,4.79.85,7.18,1.41,11.97.02.1.04.26.08.46.2,1.22.51,2.01.91,2.36.4.35,1.12.44,2.16.28,2.84-.46,4.78-1.56,5.83-3.31,1.05-1.75,1.32-4.33.79-7.73-1.02-6.57-3.77-9.51-8.27-8.79-1.28.21-2.13.66-2.56,1.36-.42.7-.54,1.83-.35,3.41Z"/>
      <path class="cls-1" d="M160.15,407.09c10.26-1.14,15.4-1.65,25.68-2.55,5.2-.46,8.98-.87,11.35-1.28,2.37-.41,4.66-1.04,6.88-1.89.69-.26,1.23-.4,1.63-.43,1.74-.12,3.34.73,4.81,2.57,2.41,2.98,3.74,6.69,4.03,11.13.14,2.23-.2,4.02-1.02,5.37-.82,1.35-2.02,2.07-3.59,2.18-1.08.07-1.94-.1-2.58-.52-.64-.42-1.53-1.4-2.66-2.94-1.62-2.19-3.57-3.6-5.86-4.2-2.29-.6-5.98-.7-11.07-.25-3.8.33-6.05,1.25-6.74,2.74-.36.8-.52,1.83-.48,3.11.04,1.28.3,4.52.79,9.73.19,2.06.64,3.3,1.33,3.74.7.44,2.42.53,5.18.28,1.36-.12,2.33-.51,2.9-1.16.57-.65.86-1.77.9-3.32.05-2,.18-3.39.36-4.15.18-.76.6-1.44,1.19-2.04.64-.65,1.42-1.05,2.33-1.12,1.35-.11,2.56.47,3.6,1.74.77.93,1.48,2.66,2.15,5.14.67,2.49,1.1,5.11,1.31,7.85.41,5.43-.04,9.93-1.34,13.52-.72,1.96-1.95,3-3.71,3.15-1.08.09-1.86-.15-2.33-.72-.47-.57-.89-1.79-1.27-3.65-.8-3.83-3.1-5.6-6.87-5.26-1.45.13-2.39.71-2.83,1.74-.44,1.03-.54,2.86-.29,5.5.15,1.61.45,3.69.9,6.22.45,2.54.83,4.21,1.11,5.01.36.99,1.2,1.64,2.54,1.92,1.35.28,3.55.28,6.62.02,4.74-.4,8.26-1.33,10.57-2.84,2.31-1.5,4.11-4.04,5.39-7.61.75-2.05,1.47-3.45,2.15-4.19.67-.73,1.59-1.14,2.74-1.22,1.35-.09,2.5.47,3.46,1.67.96,1.2,1.49,2.75,1.61,4.64.12,2.06-.22,4.67-1.01,7.82-.79,3.15-1.81,5.98-3.07,8.48-.65,1.22-1.19,2.04-1.63,2.46-.44.43-1.02.66-1.74.71-.6.04-1.48,0-2.6-.13-2.01-.25-4.73-.33-8.09-.18-13.29,1.04-26.55,2.32-39.79,3.85-1.59.18-2.87-.06-3.84-.72-.97-.67-1.54-1.7-1.7-3.1-.12-.99-.02-1.73.31-2.22.32-.49,1.13-1.19,2.39-2,.87-.56,1.53-1.18,1.91-1.89.38-.7.63-1.7.74-3,.45-5.29.2-12.31-.79-21.07-1.49-13.21-3.21-21.46-5.19-24.73-.41-.65-.82-1.08-1.25-1.31-.43-.23-1.29-.45-2.59-.69-1.94-.35-3.05-1.54-3.29-3.56-.13-1.09.07-2.11.59-3.04.53-.93,1.3-1.61,2.29-1.99,1.24-.47,3.75-.91,7.48-1.32Z"/>
      <path class="cls-1" d="M248.4,403.2c8.48,7.24,16.86,14.54,25.19,21.95,2.32,2.07,3.97,3.11,4.98,3.1,1.7-.01,2.53-1.93,2.51-5.75-.02-4.34-.29-7.3-.79-8.88-.51-1.58-1.56-2.76-3.15-3.54-1.3-.64-2.22-1.33-2.76-2.06-.54-.73-.82-1.69-.83-2.86-.04-2.89,1.86-4.78,5.7-5.63,1.57-.36,4.31-.55,8.23-.55,5.05,0,8.55.35,10.48.98,3.06,1,4.58,2.84,4.54,5.53-.03,2.24-1.3,3.91-3.79,5.02-1,.44-1.68.83-2.05,1.17-.37.34-.69.86-.95,1.54-.91,2.27-1.39,6.57-1.46,12.91-.04,6.74-.06,10.1-.1,16.84-.02,2.58-.01,6.12-.01,10.59,0,6.06-.37,10.44-1.07,13.12-.87,3.33-2.41,5-4.64,5-.97,0-1.81-.22-2.52-.67-.71-.45-1.88-1.48-3.52-3.09-9.44-9.16-19.05-18.13-28.82-26.93-2.06-1.87-3.76-2.77-5.08-2.73-1.97.07-2.85,3.02-2.63,8.83.18,4.78.55,8.04,1.11,9.78.56,1.74,1.61,3,3.16,3.76,2.15,1.07,3.27,2.51,3.32,4.34.15,4.78-4.46,7.29-13.83,7.71-4.23.19-7.54-.25-9.94-1.35-2.4-1.1-3.67-2.76-3.8-4.99-.07-1.17.11-2.06.52-2.67.41-.61,1.36-1.45,2.86-2.54,1.44-1.04,2.27-2.8,2.45-5.25.33-4.44.27-10.86-.15-19.18-.44-8.87-1.26-15.32-2.45-19.33-.44-1.46-.96-2.54-1.56-3.23-.6-.69-1.56-1.33-2.89-1.91-1.53-.67-2.61-1.36-3.23-2.04-.62-.69-.96-1.55-1.02-2.58-.19-3.3,2.44-5.55,7.9-6.69,1.86-.37,5.13-.67,9.81-.87,2.68-.11,4.63.03,5.87.41,1.24.38,2.72,1.3,4.44,2.76Z"/>
      <path class="cls-1" d="M365.69,437.59c3.09,8.6,4.6,12.91,7.55,21.54.71,1.99,1.32,3.31,1.84,3.95.52.65,1.36,1.13,2.51,1.42,2.23.57,3.27,1.92,3.09,4.04-.21,2.51-1.75,4.19-4.6,5.06-2.85.87-7.39,1.06-13.65.63-7.08-.49-12.31-1.1-15.68-1.95-1.55-.39-2.77-1.09-3.64-2.08-.88-.99-1.29-2.16-1.22-3.5.05-1.03.34-1.82.85-2.36.52-.54,1.46-1.02,2.81-1.43,1.51-.47,2.31-1.36,2.38-2.67.13-2.3-1.1-3.75-3.64-4.28-2.73-.57-6.64-.95-11.67-1.16-4.24-.17-6.78.02-7.63.54-.52.33-.99.93-1.4,1.81-.41.88-.63,1.74-.65,2.56-.02.76.09,1.25.36,1.48.26.23,1.14.65,2.6,1.2,1.88.7,2.82,1.96,2.75,3.82-.15,4.1-4.7,5.95-13.63,5.72-5.08-.13-8.82-.56-11.18-1.36-2.18-.74-3.27-2.35-3.24-4.8.01-1.07.27-1.89.76-2.47.5-.58,1.38-1.1,2.65-1.57,2.07-.76,3.65-1.84,4.74-3.25,1.09-1.41,2.67-4.43,4.76-9.07,2.86-6.32,4.3-9.48,7.24-15.78,2.7-5.78,4.57-10.1,5.53-12.98.97-2.88,1.52-5.71,1.65-8.5.14-2.96.38-5.01.74-6.15.36-1.14,1.11-2.24,2.25-3.3,2.39-2.32,5.39-3.41,8.97-3.25,3.38.15,6.77,1.68,9.46,4.55,7.93,8.45,12.45,22.4,16.33,33.56ZM331.62,442.25c3.79.15,5.68.23,9.47.41,1.74.08,2.63-.29,2.67-1.11.06-1.14-1.01-3.98-3.23-8.54-1.01-2.08-1.8-3.48-2.35-4.19-.56-.71-1.16-1.09-1.81-1.11-1.18-.05-2.2,1.06-3.08,3.34-.14.3-.66,1.51-1.56,3.61-1.5,3.46-2.25,5.53-2.28,6.22-.03.86.69,1.32,2.17,1.38Z"/>
      <path class="cls-1" d="M413.56,467.75c.43.04,1.5.27,3.08.72.73.21,1.33.37,1.77.42,2.68.32,4.52-1.78,5.48-6.3.55-2.56,1.58-9.94,3.09-22.11.23-1.85.03-3.17-.59-3.98-.62-.81-1.88-1.33-3.76-1.55-.46-.05-1.12-.07-1.97-.08-.65,0-1.23-.04-1.72-.1-1.1-.13-1.96-.55-2.57-1.26-.61-.71-.86-1.58-.74-2.61.12-1.09.77-2.12,1.94-3.08,1.17-.96,2.74-1.74,4.7-2.34,9.16-3.06,21.04-3.73,30.43-2.23,2.81.45,4.88,1.08,6.07,1.97,1.19.89,1.66,2.11,1.43,3.64-.14.89-.45,1.54-.95,1.97-.5.43-1.43.84-2.79,1.22-2.16.62-3.48,1.57-3.97,2.86-.49,1.29-1.71,6.61-2.95,15.44-1.26,8.93-1.65,14.08-1.72,14.73-.06.65-.08,1.59-.02,2.76.1,1.85.64,3.21,1.57,4.04.94.84,2.7,1.53,5.28,2.05,2.92.6,4.2,2.14,3.8,4.62-.41,2.59-2.75,3.96-7.01,4.14-5.92.25-11.92-.04-17.99-.86-3.99-.54-7.74-1.27-11.21-2.24-4.36-1.21-7.75-2.49-10.1-3.76-2.29-1.24-3.35-2.81-3.13-4.72.11-1.03.61-1.87,1.48-2.54.87-.66,1.91-.96,3.07-.85Z"/>
      <path class="cls-1" d="M499.99,424.84c6.9,1.29,13.03,3.71,18.33,7.23,2.91,1.93,5.05,4.46,6.44,7.51,1.01,2.22,1.26,4.6.72,7.12-.85,3.97-3.67,6.91-8.41,8.84-1.42.58-2.18,1.13-2.29,1.64-.1.47.5,1.4,1.77,2.79,1.76,1.93,2.99,4.28,3.7,6.98.71,2.71.79,5.35.23,7.95-.84,3.91-2.98,7.42-6.37,10.58-6.03,5.63-13.97,7.42-23.96,5.53-6.9-1.31-12.8-3.74-17.71-7.35-3.33-2.45-5.76-5.48-7.31-9.03-1.16-2.67-1.51-5.62-.99-8.85.71-4.39,3.18-7.71,7.45-9.93,1.59-.85,2.43-1.55,2.52-2.09.07-.44-.39-1.38-1.41-2.8-2.53-3.6-3.46-7.55-2.76-11.87.97-5.98,4.62-10.31,10.99-12.88,5.54-2.23,11.92-2.7,19.04-1.37ZM483.39,462.76c-.72-.14-1.38.13-1.93.78-.56.65-.94,1.56-1.14,2.71-.23,1.32-.17,2.82.18,4.49.35,1.67.91,3.1,1.67,4.29,1.82,2.88,4.34,4.62,7.59,5.23,1.9.36,3.51.19,4.83-.5,1.32-.69,2.12-1.78,2.41-3.27.32-1.66.04-3.11-.84-4.37-.88-1.26-2.91-3.12-6.09-5.51-3.03-2.28-5.29-3.58-6.67-3.84ZM500.43,434.64c-1.43-.27-2.7-.11-3.8.47-1.1.58-1.75,1.44-1.96,2.55-.33,1.76.55,3.76,2.55,5.99,2.24,2.5,4.16,3.95,5.8,4.26.84.16,1.71-.28,2.62-1.33.91-1.05,1.51-2.32,1.8-3.8.39-1.99-.03-3.66-1.25-4.98-1.5-1.64-3.42-2.72-5.77-3.16Z"/>
      <path class="cls-1" d="M558.88,443.47c4.44,1.08,8.44,3.28,11.96,6.55,4.76,4.42,7.7,10,8.84,16.62.83,4.85.59,9.73-.73,14.62-2.41,8.91-7.59,15.35-15.37,19.38-5.94,3.08-11.98,3.85-18.14,2.35-6.81-1.66-12.03-5.45-15.76-11.41-4.41-7.04-5.67-15.36-3.57-24.98,2.05-9.39,6.37-16.18,13.02-20.29,5.88-3.63,12.5-4.61,19.76-2.84ZM554.14,458.16c-2.87-.78-5.09,1.58-6.35,6.87-1.65,6.94-1.88,13.46-.75,19.58.45,2.38,1.48,3.76,3.1,4.16,2.83.69,4.91-1.64,6.26-7.02.75-3.01,1.25-6.3,1.48-9.88.24-3.58.14-6.56-.29-8.93-.47-2.63-1.65-4.29-3.45-4.78Z"/>
    </g>
  </g>
</svg>